<svg xmlns="http://www.w3.org/2000/svg" xmlns:xlink="http://www.w3.org/1999/xlink" width="500" zoomAndPan="magnify" viewBox="0 0 375 374.999991" height="500" preserveAspectRatio="xMidYMid meet" version="1.0">
  <!-- Circular background for better visibility -->
  <circle cx="187.5" cy="187.5" r="180" fill="#0ea5e9" opacity="1"/>
  
  <defs>
    <clipPath id="6eca2a4666"><path d="M 49.5625 48.382812 L 325.5625 48.382812 L 325.5625 299.632812 L 49.5625 299.632812 Z M 49.5625 48.382812 " clip-rule="nonzero"/></clipPath>
    <clipPath id="0caf7b83d6"><path d="M 150.585938 302 L 224.085938 302 L 224.085938 326.457031 L 150.585938 326.457031 Z M 150.585938 302 " clip-rule="nonzero"/></clipPath>
    <clipPath id="5ac1a2d5dc"><path d="M 157 234.957031 L 217 234.957031 L 217 319 L 157 319 Z M 157 234.957031 " clip-rule="nonzero"/></clipPath>
    <clipPath id="935156ba76"><path d="M 104.492188 219 L 107 219 L 107 223 L 104.492188 223 Z M 104.492188 219 " clip-rule="nonzero"/></clipPath>
    <clipPath id="556dd3afe7"><path d="M 229 203 L 270.242188 203 L 270.242188 225 L 229 225 Z M 229 203 " clip-rule="nonzero"/></clipPath>
  </defs>
  
  <!-- Changed all paths to white for dark mode visibility -->
  <path fill="#ffffff" d="M 151.347656 167.546875 C 141.347656 167.546875 133.242188 175.640625 133.242188 185.632812 C 133.242188 195.621094 141.347656 203.722656 151.347656 203.722656 C 161.347656 203.722656 169.457031 195.621094 169.457031 185.632812 C 169.457031 175.640625 161.347656 167.546875 151.347656 167.546875 " fill-opacity="1" fill-rule="nonzero"/>
  <path fill="#ffffff" d="M 241.878906 185.632812 C 241.878906 175.640625 233.773438 167.546875 223.769531 167.546875 C 213.773438 167.546875 205.667969 175.640625 205.667969 185.632812 C 205.667969 195.621094 213.773438 203.722656 223.769531 203.722656 C 233.773438 203.722656 241.878906 195.621094 241.878906 185.632812 " fill-opacity="1" fill-rule="nonzero"/>
  <g clip-path="url(#6eca2a4666)"><path fill="#ffffff" d="M 187.5625 48.382812 C 111.378906 48.382812 49.625 110.074219 49.625 186.175781 C 49.625 233.230469 73.234375 274.773438 109.261719 299.632812 C 117.417969 283.875 132.441406 271.082031 151.257812 263.785156 C 131.378906 256.074219 115.730469 242.230469 107.949219 225.234375 C 93.339844 224.894531 81.597656 212.972656 81.597656 198.296875 C 81.597656 187.875 87.523438 178.839844 96.1875 174.355469 L 96.1875 122.457031 C 92.65625 121.164062 90.136719 117.773438 90.136719 113.796875 C 90.136719 108.703125 94.269531 104.574219 99.367188 104.574219 C 104.464844 104.574219 108.597656 108.703125 108.597656 113.796875 C 108.597656 117.773438 106.078125 121.164062 102.546875 122.457031 L 102.546875 172.023438 C 104.488281 171.582031 106.503906 171.339844 108.582031 171.339844 L 110.464844 171.339844 C 123.992188 147.539062 153.425781 131.046875 187.5625 131.046875 C 221.695312 131.046875 251.125 147.539062 264.652344 171.339844 L 266.539062 171.339844 C 281.441406 171.339844 293.519531 183.410156 293.519531 198.296875 C 293.519531 212.972656 281.78125 224.894531 267.171875 225.234375 C 259.390625 242.230469 243.742188 256.074219 223.859375 263.785156 C 242.675781 271.082031 257.707031 283.875 265.859375 299.632812 C 301.890625 274.773438 325.496094 233.230469 325.496094 186.175781 C 325.496094 110.074219 263.742188 48.382812 187.5625 48.382812 " fill-opacity="1" fill-rule="nonzero"/></g>
  <g clip-path="url(#0caf7b83d6)"><path fill="#ffffff" d="M 187.5 326.558594 C 177.984375 326.558594 169.015625 325.472656 162.238281 323.5 C 154.613281 321.277344 150.582031 318.136719 150.582031 314.410156 C 150.582031 306.976562 166.421875 303.34375 179.984375 302.488281 C 181.070312 302.417969 182.007812 303.246094 182.078125 304.335938 C 182.144531 305.425781 181.320312 306.363281 180.230469 306.429688 C 172.722656 306.902344 165.925781 308.113281 161.089844 309.835938 C 156.25 311.558594 154.53125 313.378906 154.53125 314.410156 C 154.53125 315.425781 156.386719 317.683594 163.34375 319.710938 C 169.769531 321.582031 178.347656 322.613281 187.5 322.613281 C 196.652344 322.613281 205.230469 321.582031 211.660156 319.710938 C 218.613281 317.683594 220.46875 315.425781 220.46875 314.410156 C 220.46875 311.753906 211.121094 307.371094 194.21875 306.398438 C 193.128906 306.335938 192.300781 305.402344 192.363281 304.316406 C 192.425781 303.226562 193.359375 302.390625 194.445312 302.457031 C 208.273438 303.253906 224.417969 306.859375 224.417969 314.410156 C 224.417969 318.136719 220.386719 321.277344 212.761719 323.5 C 205.988281 325.472656 197.015625 326.558594 187.5 326.558594 Z M 187.5 326.558594 " fill-opacity="1" fill-rule="nonzero"/></g>
  <g clip-path="url(#5ac1a2d5dc)"><path fill="#ffffff" d="M 187.191406 318.085938 C 186.472656 318.085938 185.8125 317.699219 185.464844 317.070312 C 183.679688 313.851562 180.933594 309.488281 177.757812 304.433594 C 168.878906 290.308594 157.828125 272.730469 157.828125 264.351562 C 157.828125 248.160156 171 234.988281 187.191406 234.988281 C 203.378906 234.988281 216.546875 248.160156 216.546875 264.351562 C 216.546875 273.148438 206.144531 289.519531 196.964844 303.964844 C 193.804688 308.9375 190.820312 313.636719 188.917969 317.070312 C 188.570312 317.699219 187.910156 318.085938 187.191406 318.085938 Z M 187.191406 238.9375 C 173.175781 238.9375 161.777344 250.335938 161.777344 264.351562 C 161.777344 271.59375 172.945312 289.359375 181.101562 302.332031 C 183.421875 306.023438 185.515625 309.355469 187.191406 312.167969 C 189.003906 309.132812 191.269531 305.566406 193.632812 301.847656 C 201.636719 289.25 212.597656 272 212.597656 264.351562 C 212.597656 250.335938 201.199219 238.9375 187.191406 238.9375 Z M 187.191406 238.9375 " fill-opacity="1" fill-rule="nonzero"/></g>
  <path fill="#ffffff" d="M 187.191406 277.527344 C 179.351562 277.527344 172.976562 271.152344 172.976562 263.316406 C 172.976562 255.480469 179.351562 249.105469 187.191406 249.105469 C 195.023438 249.105469 201.398438 255.480469 201.398438 263.316406 C 201.398438 271.152344 195.023438 277.527344 187.191406 277.527344 Z M 187.191406 253.050781 C 181.53125 253.050781 176.925781 257.65625 176.925781 263.316406 C 176.925781 268.976562 181.53125 273.578125 187.191406 273.578125 C 192.847656 273.578125 197.453125 268.976562 197.453125 263.316406 C 197.453125 257.65625 192.847656 253.050781 187.191406 253.050781 Z M 187.191406 253.050781 " fill-opacity="1" fill-rule="nonzero"/>
  <!-- Simplified remaining decorative paths - keeping only essential ones in white -->
  <g clip-path="url(#556dd3afe7)"><path fill="#ffffff" d="M 270.058594 207.339844 C 269.433594 206.667969 268.277344 205.585938 266.960938 205.226562 C 264.535156 204.566406 257.523438 206.574219 255.644531 207.191406 C 255.34375 207.292969 255.007812 207.28125 254.71875 207.167969 L 244.351562 203.128906 C 244.058594 203.011719 243.742188 203.003906 243.441406 203.09375 L 239.652344 204.269531 C 239.195312 204.410156 239.078125 205 239.4375 205.308594 L 246.15625 211.070312 C 246.257812 211.15625 246.234375 211.3125 246.117188 211.363281 L 236.382812 215.453125 C 235.921875 215.644531 235.398438 215.578125 235.007812 215.277344 L 232.25 213.136719 C 231.867188 212.847656 231.359375 212.769531 230.910156 212.945312 L 229.351562 213.570312 C 229.070312 213.679688 228.996094 214.054688 229.210938 214.261719 L 231.125 216.617188 C 231.375 216.859375 231.519531 217.191406 231.535156 217.542969 L 231.617188 219.53125 C 231.617188 219.625 231.660156 219.714844 231.726562 219.78125 L 233.21875 221.363281 C 233.417969 221.574219 233.726562 221.640625 233.992188 221.53125 L 235.007812 221.132812 C 235.273438 221.023438 235.488281 220.832031 235.648438 220.597656 L 235.75 220.441406 C 235.914062 220.175781 236.171875 219.972656 236.472656 219.875 L 247.589844 216.175781 C 247.730469 216.125 247.875 216.261719 247.839844 216.410156 L 246.109375 223.195312 C 245.933594 223.894531 246.605469 224.511719 247.289062 224.261719 L 250.953125 222.914062 C 251.195312 222.820312 251.402344 222.671875 251.5625 222.464844 L 258.039062 214.101562 C 258.199219 213.894531 258.40625 213.746094 258.65625 213.652344 C 260.007812 213.171875 264.621094 211.113281 267.875 209.914062 C 268.867188 209.554688 269.5 209.222656 269.898438 208.941406 C 270.425781 208.582031 270.5 207.824219 270.058594 207.339844 Z M 270.058594 207.339844 " fill-opacity="1" fill-rule="nonzero"/></g>
</svg>
