<svg xmlns="http://www.w3.org/2000/svg" xmlns:xlink="http://www.w3.org/1999/xlink" width="500" zoomAndPan="magnify" viewBox="0 0 375 374.999991" height="500" preserveAspectRatio="xMidYMid meet" version="1.0"><defs><clipPath id="6eca2a4666"><path d="M 49.5625 48.382812 L 325.5625 48.382812 L 325.5625 299.632812 L 49.5625 299.632812 Z M 49.5625 48.382812 " clip-rule="nonzero"/></clipPath><clipPath id="0caf7b83d6"><path d="M 150.585938 302 L 224.085938 302 L 224.085938 326.457031 L 150.585938 326.457031 Z M 150.585938 302 " clip-rule="nonzero"/></clipPath><clipPath id="5ac1a2d5dc"><path d="M 157 234.957031 L 217 234.957031 L 217 319 L 157 319 Z M 157 234.957031 " clip-rule="nonzero"/></clipPath><clipPath id="935156ba76"><path d="M 104.492188 219 L 107 219 L 107 223 L 104.492188 223 Z M 104.492188 219 " clip-rule="nonzero"/></clipPath><clipPath id="556dd3afe7"><path d="M 229 203 L 270.242188 203 L 270.242188 225 L 229 225 Z M 229 203 " clip-rule="nonzero"/></clipPath></defs><path fill="#322f30" d="M 151.347656 167.546875 C 141.347656 167.546875 133.242188 175.640625 133.242188 185.632812 C 133.242188 195.621094 141.347656 203.722656 151.347656 203.722656 C 161.347656 203.722656 169.457031 195.621094 169.457031 185.632812 C 169.457031 175.640625 161.347656 167.546875 151.347656 167.546875 " fill-opacity="1" fill-rule="nonzero"/><path fill="#322f30" d="M 241.878906 185.632812 C 241.878906 175.640625 233.773438 167.546875 223.769531 167.546875 C 213.773438 167.546875 205.667969 175.640625 205.667969 185.632812 C 205.667969 195.621094 213.773438 203.722656 223.769531 203.722656 C 233.773438 203.722656 241.878906 195.621094 241.878906 185.632812 " fill-opacity="1" fill-rule="nonzero"/><g clip-path="url(#6eca2a4666)"><path fill="#322f30" d="M 187.5625 48.382812 C 111.378906 48.382812 49.625 110.074219 49.625 186.175781 C 49.625 233.230469 73.234375 274.773438 109.261719 299.632812 C 117.417969 283.875 132.441406 271.082031 151.257812 263.785156 C 131.378906 256.074219 115.730469 242.230469 107.949219 225.234375 C 93.339844 224.894531 81.597656 212.972656 81.597656 198.296875 C 81.597656 187.875 87.523438 178.839844 96.1875 174.355469 L 96.1875 122.457031 C 92.65625 121.164062 90.136719 117.773438 90.136719 113.796875 C 90.136719 108.703125 94.269531 104.574219 99.367188 104.574219 C 104.464844 104.574219 108.597656 108.703125 108.597656 113.796875 C 108.597656 117.773438 106.078125 121.164062 102.546875 122.457031 L 102.546875 172.023438 C 104.488281 171.582031 106.503906 171.339844 108.582031 171.339844 L 110.464844 171.339844 C 123.992188 147.539062 153.425781 131.046875 187.5625 131.046875 C 221.695312 131.046875 251.125 147.539062 264.652344 171.339844 L 266.539062 171.339844 C 281.441406 171.339844 293.519531 183.410156 293.519531 198.296875 C 293.519531 212.972656 281.78125 224.894531 267.171875 225.234375 C 259.390625 242.230469 243.742188 256.074219 223.859375 263.785156 C 242.675781 271.082031 257.707031 283.875 265.859375 299.632812 C 301.890625 274.773438 325.496094 233.230469 325.496094 186.175781 C 325.496094 110.074219 263.742188 48.382812 187.5625 48.382812 " fill-opacity="1" fill-rule="nonzero"/></g><g clip-path="url(#0caf7b83d6)"><path fill="#322f30" d="M 187.5 326.558594 C 177.984375 326.558594 169.015625 325.472656 162.238281 323.5 C 154.613281 321.277344 150.582031 318.136719 150.582031 314.410156 C 150.582031 306.976562 166.421875 303.34375 179.984375 302.488281 C 181.070312 302.417969 182.007812 303.246094 182.078125 304.335938 C 182.144531 305.425781 181.320312 306.363281 180.230469 306.429688 C 172.722656 306.902344 165.925781 308.113281 161.089844 309.835938 C 156.25 311.558594 154.53125 313.378906 154.53125 314.410156 C 154.53125 315.425781 156.386719 317.683594 163.34375 319.710938 C 169.769531 321.582031 178.347656 322.613281 187.5 322.613281 C 196.652344 322.613281 205.230469 321.582031 211.660156 319.710938 C 218.613281 317.683594 220.46875 315.425781 220.46875 314.410156 C 220.46875 311.753906 211.121094 307.371094 194.21875 306.398438 C 193.128906 306.335938 192.300781 305.402344 192.363281 304.316406 C 192.425781 303.226562 193.359375 302.390625 194.445312 302.457031 C 208.273438 303.253906 224.417969 306.859375 224.417969 314.410156 C 224.417969 318.136719 220.386719 321.277344 212.761719 323.5 C 205.988281 325.472656 197.015625 326.558594 187.5 326.558594 Z M 187.5 326.558594 " fill-opacity="1" fill-rule="nonzero"/></g><g clip-path="url(#5ac1a2d5dc)"><path fill="#322f30" d="M 187.191406 318.085938 C 186.472656 318.085938 185.8125 317.699219 185.464844 317.070312 C 183.679688 313.851562 180.933594 309.488281 177.757812 304.433594 C 168.878906 290.308594 157.828125 272.730469 157.828125 264.351562 C 157.828125 248.160156 171 234.988281 187.191406 234.988281 C 203.378906 234.988281 216.546875 248.160156 216.546875 264.351562 C 216.546875 273.148438 206.144531 289.519531 196.964844 303.964844 C 193.804688 308.9375 190.820312 313.636719 188.917969 317.070312 C 188.570312 317.699219 187.910156 318.085938 187.191406 318.085938 Z M 187.191406 238.9375 C 173.175781 238.9375 161.777344 250.335938 161.777344 264.351562 C 161.777344 271.59375 172.945312 289.359375 181.101562 302.332031 C 183.421875 306.023438 185.515625 309.355469 187.191406 312.167969 C 189.003906 309.132812 191.269531 305.566406 193.632812 301.847656 C 201.636719 289.25 212.597656 272 212.597656 264.351562 C 212.597656 250.335938 201.199219 238.9375 187.191406 238.9375 Z M 187.191406 238.9375 " fill-opacity="1" fill-rule="nonzero"/></g><path fill="#322f30" d="M 187.191406 277.527344 C 179.351562 277.527344 172.976562 271.152344 172.976562 263.316406 C 172.976562 255.480469 179.351562 249.105469 187.191406 249.105469 C 195.023438 249.105469 201.398438 255.480469 201.398438 263.316406 C 201.398438 271.152344 195.023438 277.527344 187.191406 277.527344 Z M 187.191406 253.050781 C 181.53125 253.050781 176.925781 257.65625 176.925781 263.316406 C 176.925781 268.976562 181.53125 273.578125 187.191406 273.578125 C 192.847656 273.578125 197.453125 268.976562 197.453125 263.316406 C 197.453125 257.65625 192.847656 253.050781 187.191406 253.050781 Z M 187.191406 253.050781 " fill-opacity="1" fill-rule="nonzero"/><g clip-path="url(#935156ba76)"><path fill="#322f30" d="M 106.765625 219.300781 C 106.507812 219.101562 106.140625 219.148438 105.941406 219.40625 C 105.433594 220.066406 104.992188 220.773438 104.632812 221.507812 C 104.492188 221.796875 104.617188 222.148438 104.90625 222.289062 C 104.992188 222.332031 105.074219 222.347656 105.164062 222.347656 C 105.382812 222.347656 105.589844 222.222656 105.699219 222.015625 C 106.023438 221.355469 106.414062 220.714844 106.882812 220.125 C 107.0625 219.867188 107.023438 219.5 106.765625 219.300781 Z M 106.765625 219.300781 " fill-opacity="1" fill-rule="nonzero"/></g><path fill="#322f30" d="M 121.84375 215.960938 C 124.828125 216.933594 127.683594 218.832031 129.875 221.324219 C 130.074219 221.546875 130.273438 221.789062 130.464844 222.023438 C 130.582031 222.171875 130.753906 222.246094 130.921875 222.246094 C 131.046875 222.246094 131.179688 222.207031 131.289062 222.121094 C 131.546875 221.921875 131.589844 221.546875 131.378906 221.296875 C 131.179688 221.039062 130.964844 220.789062 130.753906 220.546875 C 129.515625 219.140625 128.074219 217.910156 126.515625 216.902344 C 127.550781 215.636719 128.398438 214.726562 129.257812 213.976562 C 129.5 213.761719 129.53125 213.394531 129.316406 213.144531 C 129.097656 212.902344 128.730469 212.871094 128.484375 213.085938 C 127.550781 213.894531 126.648438 214.859375 125.558594 216.210938 L 125.492188 216.292969 C 124.433594 215.703125 123.328125 215.210938 122.210938 214.84375 C 121.902344 214.746094 121.570312 214.910156 121.472656 215.21875 C 121.371094 215.527344 121.539062 215.859375 121.84375 215.960938 Z M 121.84375 215.960938 " fill-opacity="1" fill-rule="nonzero"/><path fill="#322f30" d="M 118.480469 214.085938 C 118.097656 214.054688 117.707031 214.035156 117.332031 214.035156 L 117.214844 214.035156 C 114.476562 214.035156 111.6875 214.851562 109.355469 216.328125 C 109.078125 216.5 108.996094 216.867188 109.171875 217.132812 C 109.28125 217.308594 109.472656 217.410156 109.671875 217.410156 C 109.777344 217.410156 109.886719 217.375 109.988281 217.316406 C 112.136719 215.960938 114.699219 215.210938 117.222656 215.210938 L 117.332031 215.210938 C 117.683594 215.210938 118.039062 215.226562 118.398438 215.261719 C 118.722656 215.292969 119.003906 215.042969 119.03125 214.71875 C 119.046875 214.394531 118.804688 214.113281 118.480469 214.085938 Z M 118.480469 214.085938 " fill-opacity="1" fill-rule="nonzero"/><path fill="#322f30" d="M 133.046875 223.878906 C 132.90625 223.589844 132.546875 223.472656 132.253906 223.613281 C 131.964844 223.753906 131.847656 224.113281 131.988281 224.402344 C 132.519531 225.46875 132.835938 226.542969 132.929688 227.585938 C 132.945312 227.769531 132.953125 227.960938 132.953125 228.152344 C 132.953125 228.21875 132.953125 228.292969 132.953125 228.359375 C 132.945312 228.683594 133.195312 228.960938 133.519531 228.96875 C 133.527344 228.96875 133.539062 228.96875 133.539062 228.96875 C 133.855469 228.96875 134.113281 228.71875 134.128906 228.402344 C 134.128906 228.316406 134.128906 228.234375 134.128906 228.152344 C 134.128906 227.925781 134.121094 227.703125 134.09375 227.476562 C 134.003906 226.292969 133.644531 225.078125 133.046875 223.878906 Z M 133.046875 223.878906 " fill-opacity="1" fill-rule="nonzero"/><path fill="#322f30" d="M 141.757812 209.882812 L 141.390625 209.847656 C 140.425781 209.765625 139.542969 209.722656 138.691406 209.722656 C 136.277344 209.722656 134.226562 210.046875 132.421875 210.722656 C 132.113281 210.839844 131.964844 211.171875 132.078125 211.480469 C 132.171875 211.714844 132.394531 211.863281 132.628906 211.863281 C 132.695312 211.863281 132.769531 211.855469 132.835938 211.828125 C 134.503906 211.207031 136.417969 210.90625 138.691406 210.90625 C 139.507812 210.90625 140.355469 210.945312 141.289062 211.023438 L 141.648438 211.054688 C 141.964844 211.082031 142.257812 210.847656 142.289062 210.523438 C 142.324219 210.199219 142.082031 209.914062 141.757812 209.882812 Z M 141.757812 209.882812 " fill-opacity="1" fill-rule="nonzero"/><path fill="#322f30" d="M 131.621094 232.097656 C 131.195312 232.613281 130.699219 233.023438 130.132812 233.304688 C 129.53125 233.605469 128.867188 233.757812 128.15625 233.757812 C 126.785156 233.757812 125.367188 233.191406 124.285156 232.214844 C 124.042969 232 123.667969 232.015625 123.453125 232.257812 C 123.234375 232.5 123.253906 232.875 123.496094 233.089844 C 124.792969 234.265625 126.492188 234.9375 128.15625 234.9375 C 129.058594 234.9375 129.898438 234.746094 130.65625 234.363281 C 131.371094 234.003906 131.996094 233.496094 132.53125 232.847656 C 132.738281 232.597656 132.695312 232.222656 132.445312 232.023438 C 132.195312 231.808594 131.828125 231.839844 131.621094 232.097656 Z M 131.621094 232.097656 " fill-opacity="1" fill-rule="nonzero"/><path fill="#322f30" d="M 156.070312 213.761719 C 154.972656 213.253906 153.929688 212.820312 152.890625 212.429688 C 150.484375 211.539062 147.976562 210.847656 145.445312 210.390625 C 145.128906 210.332031 144.820312 210.539062 144.761719 210.863281 C 144.703125 211.179688 144.921875 211.488281 145.238281 211.546875 C 147.703125 211.996094 150.140625 212.664062 152.480469 213.527344 C 153.488281 213.902344 154.503906 214.328125 155.578125 214.820312 C 155.664062 214.851562 155.746094 214.878906 155.828125 214.878906 C 156.054688 214.878906 156.261719 214.753906 156.363281 214.535156 C 156.496094 214.246094 156.371094 213.894531 156.070312 213.761719 Z M 156.070312 213.761719 " fill-opacity="1" fill-rule="nonzero"/><path fill="#322f30" d="M 122.113281 226.703125 C 122.113281 225.769531 122.246094 224.835938 122.496094 223.914062 C 122.894531 222.472656 123.59375 221.015625 124.617188 219.457031 C 124.792969 219.183594 124.71875 218.824219 124.453125 218.640625 C 124.183594 218.464844 123.820312 218.542969 123.636719 218.808594 C 122.546875 220.464844 121.804688 222.03125 121.363281 223.597656 C 121.078125 224.621094 120.929688 225.660156 120.929688 226.703125 C 120.929688 227.777344 121.085938 228.792969 121.386719 229.742188 C 121.472656 229.992188 121.695312 230.148438 121.945312 230.148438 C 122.003906 230.148438 122.070312 230.140625 122.128906 230.125 C 122.4375 230.023438 122.601562 229.691406 122.503906 229.382812 C 122.253906 228.558594 122.113281 227.652344 122.113281 226.703125 Z M 122.113281 226.703125 " fill-opacity="1" fill-rule="nonzero"/><path fill="#322f30" d="M 162.617188 217.226562 C 161.125 216.359375 159.894531 215.675781 158.734375 215.070312 C 158.445312 214.917969 158.09375 215.027344 157.945312 215.320312 C 157.796875 215.609375 157.902344 215.960938 158.195312 216.109375 C 159.335938 216.710938 160.558594 217.382812 162.027344 218.242188 C 162.117188 218.292969 162.21875 218.324219 162.316406 218.324219 C 162.515625 218.324219 162.714844 218.21875 162.824219 218.035156 C 162.992188 217.75 162.898438 217.390625 162.617188 217.226562 Z M 162.617188 217.226562 " fill-opacity="1" fill-rule="nonzero"/><path fill="#322f30" d="M 195.636719 227.558594 C 194.152344 227.644531 192.703125 227.667969 191.269531 227.644531 C 190.945312 227.636719 190.679688 227.894531 190.671875 228.21875 C 190.664062 228.542969 190.921875 228.808594 191.246094 228.816406 C 191.613281 228.824219 191.980469 228.824219 192.355469 228.824219 C 193.445312 228.824219 194.570312 228.792969 195.703125 228.726562 C 196.027344 228.710938 196.277344 228.425781 196.257812 228.101562 C 196.234375 227.785156 195.953125 227.542969 195.636719 227.558594 Z M 195.636719 227.558594 " fill-opacity="1" fill-rule="nonzero"/><path fill="#322f30" d="M 223.023438 221.421875 C 220.484375 222.28125 216.636719 223.546875 212.515625 224.652344 C 212.199219 224.738281 212.015625 225.0625 212.097656 225.378906 C 212.164062 225.644531 212.40625 225.8125 212.664062 225.8125 C 212.714844 225.8125 212.765625 225.804688 212.816406 225.792969 C 216.96875 224.679688 220.84375 223.40625 223.390625 222.546875 C 223.699219 222.449219 223.863281 222.105469 223.757812 221.796875 C 223.664062 221.480469 223.332031 221.316406 223.023438 221.421875 Z M 223.023438 221.421875 " fill-opacity="1" fill-rule="nonzero"/><path fill="#322f30" d="M 208.96875 225.535156 C 205.835938 226.269531 202.8125 226.8125 199.992188 227.160156 C 199.664062 227.203125 199.441406 227.492188 199.480469 227.820312 C 199.515625 228.117188 199.773438 228.335938 200.066406 228.335938 C 200.089844 228.335938 200.113281 228.335938 200.140625 228.328125 C 203.011719 227.976562 206.070312 227.417969 209.242188 226.675781 C 209.558594 226.601562 209.757812 226.285156 209.683594 225.96875 C 209.601562 225.660156 209.285156 225.460938 208.96875 225.535156 Z M 208.96875 225.535156 " fill-opacity="1" fill-rule="nonzero"/><path fill="#322f30" d="M 174.433594 223.855469 C 171.675781 222.554688 168.960938 220.980469 166.421875 219.472656 C 166.140625 219.308594 165.78125 219.398438 165.613281 219.683594 C 165.449219 219.964844 165.539062 220.324219 165.824219 220.492188 C 168.386719 222.015625 171.136719 223.605469 173.933594 224.921875 C 174.015625 224.960938 174.101562 224.980469 174.183594 224.980469 C 174.410156 224.980469 174.617188 224.855469 174.714844 224.636719 C 174.851562 224.347656 174.726562 223.996094 174.433594 223.855469 Z M 174.433594 223.855469 " fill-opacity="1" fill-rule="nonzero"/><path fill="#322f30" d="M 188.363281 227.503906 C 185.992188 227.320312 183.695312 226.953125 181.519531 226.429688 C 180.304688 226.128906 179.039062 225.746094 177.773438 225.269531 C 177.464844 225.152344 177.132812 225.3125 177.015625 225.621094 C 176.898438 225.929688 177.054688 226.261719 177.363281 226.378906 C 178.679688 226.871094 179.988281 227.269531 181.246094 227.578125 C 183.476562 228.117188 185.84375 228.492188 188.273438 228.683594 C 188.289062 228.683594 188.308594 228.683594 188.324219 228.683594 C 188.632812 228.683594 188.882812 228.453125 188.90625 228.144531 C 188.929688 227.808594 188.691406 227.527344 188.363281 227.503906 Z M 188.363281 227.503906 " fill-opacity="1" fill-rule="nonzero"/><path fill="#322f30" d="M 228.046875 219.691406 L 225.820312 220.464844 C 225.515625 220.574219 225.355469 220.90625 225.457031 221.214844 C 225.539062 221.457031 225.765625 221.613281 226.011719 221.613281 C 226.082031 221.613281 226.136719 221.605469 226.207031 221.582031 L 228.429688 220.808594 C 228.738281 220.699219 228.894531 220.367188 228.796875 220.058594 C 228.6875 219.75 228.355469 219.582031 228.046875 219.691406 Z M 228.046875 219.691406 " fill-opacity="1" fill-rule="nonzero"/><g clip-path="url(#556dd3afe7)"><path fill="#322f30" d="M 270.058594 207.339844 C 269.433594 206.667969 268.277344 205.585938 266.960938 205.226562 C 264.535156 204.566406 257.523438 206.574219 255.644531 207.191406 C 255.34375 207.292969 255.007812 207.28125 254.71875 207.167969 L 244.351562 203.128906 C 244.058594 203.011719 243.742188 203.003906 243.441406 203.09375 L 239.652344 204.269531 C 239.195312 204.410156 239.078125 205 239.4375 205.308594 L 246.15625 211.070312 C 246.257812 211.15625 246.234375 211.3125 246.117188 211.363281 L 236.382812 215.453125 C 235.921875 215.644531 235.398438 215.578125 235.007812 215.277344 L 232.25 213.136719 C 231.867188 212.847656 231.359375 212.769531 230.910156 212.945312 L 229.351562 213.570312 C 229.070312 213.679688 228.996094 214.054688 229.210938 214.261719 L 231.125 216.617188 C 231.375 216.859375 231.519531 217.191406 231.535156 217.542969 L 231.617188 219.53125 C 231.617188 219.625 231.660156 219.714844 231.726562 219.78125 L 233.21875 221.363281 C 233.417969 221.574219 233.726562 221.640625 233.992188 221.53125 L 235.007812 221.132812 C 235.273438 221.023438 235.488281 220.832031 235.648438 220.597656 L 235.75 220.441406 C 235.914062 220.175781 236.171875 219.972656 236.472656 219.875 L 247.589844 216.175781 C 247.730469 216.125 247.875 216.261719 247.839844 216.410156 L 246.109375 223.195312 C 245.933594 223.894531 246.605469 224.511719 247.289062 224.261719 L 250.953125 222.914062 C 251.195312 222.820312 251.402344 222.671875 251.5625 222.464844 L 258.039062 214.101562 C 258.199219 213.894531 258.40625 213.746094 258.65625 213.652344 C 260.007812 213.171875 264.621094 211.113281 267.875 209.914062 C 268.867188 209.554688 269.5 209.222656 269.898438 208.941406 C 270.425781 208.582031 270.5 207.824219 270.058594 207.339844 Z M 270.058594 207.339844 " fill-opacity="1" fill-rule="nonzero"/></g></svg>